<?xml version="1.0" encoding="utf-8"?>
<!-- Generator: Adobe Illustrator 19.0.0, SVG Export Plug-In . SVG Version: 6.00 Build 0)  -->
<svg version="1.1" id="Layer_2" xmlns="http://www.w3.org/2000/svg" xmlns:xlink="http://www.w3.org/1999/xlink" x="0px" y="0px"
	 viewBox="0 0 488.7 488.7" style="enable-background:new 0 0 488.7 488.7;" xml:space="preserve">
<style type="text/css">
	.st0{fill:#FFFFFF;}
	.st1{fill:#2B2D79;}
	.st2{fill:#3F7CBF;}
</style>
<circle id="XMLID_2_" class="st0" cx="244.3" cy="244.7" r="242.5"/>
<g id="XMLID_1_">
	<g id="XMLID_3_">
		<circle id="XMLID_4_" class="st1" cx="253.8" cy="231.1" r="198.4"/>
		<g id="XMLID_5_">
			<g id="XMLID_7_">
				<circle id="XMLID_8_" class="st1" cx="233.1" cy="260" r="196.6"/>
			</g>
			<circle id="XMLID_9_" class="st0" cx="246.6" cy="243" r="201.8"/>
		</g>
	</g>
	<g id="XMLID_10_">
		<path id="XMLID_16_" class="st1" d="M179,139.1v16.8h-30.4v13.5h22.7v15.9h-22.7V215h-21.1v-75.9H179z"/>
		<path id="XMLID_23_" class="st1" d="M208.3,139.1v43.3c0,4.3,0.9,7.6,2.8,9.9c1.9,2.3,4.8,3.5,8.6,3.5s6.8-1.2,8.7-3.5
			c2-2.4,2.9-5.6,2.9-9.9v-43.3h21v43.3c0,7.1-1.4,13.2-4.3,18.2c-2.9,5-6.8,8.8-11.8,11.3c-5,2.5-10.6,3.8-16.9,3.8
			c-6.3,0-11.8-1.2-16.7-3.8c-4.8-2.5-8.6-6.3-11.3-11.3c-2.7-5-4.1-11.1-4.1-18.3v-43.3H208.3z"/>
		<path id="XMLID_26_" class="st1" d="M284.7,199h23.7v16h-44.8v-75.9h21.1V199z"/>
		<path id="XMLID_30_" class="st1" d="M337.4,199h23.7v16h-44.8v-75.9h21.1V199z"/>
	</g>
	<g id="XMLID_11_">
		<path id="XMLID_43_" class="st1" d="M179.4,226.6v75.3h-20.8v-42.7l-14,42.7h-18l-14-42.7v42.7h-21v-75.3h25.7l18.6,48.9l18-48.9
			H179.4z"/>
		<path id="XMLID_46_" class="st1" d="M397.5,301.8h-21l-27.8-42.2v42.2h-21v-75.5h21l27.8,42.7v-42.7h21V301.8z"/>
	</g>
	<circle id="XMLID_12_" class="st0" cx="211.2" cy="265.5" r="44.1"/>
	<circle id="XMLID_13_" class="st0" cx="296.2" cy="265.5" r="44.1"/>
	<g id="XMLID_14_">
		<path id="XMLID_39_" class="st2" d="M237.7,226.5c6.6,3.8,11.8,9,15.6,15.7c3.8,6.7,5.7,14.3,5.7,22.7c0,8.4-1.9,16-5.8,22.7
			c-3.9,6.7-9.1,12-15.7,15.8c-6.6,3.8-13.9,5.7-22,5.7s-15.3-1.9-22-5.7c-6.6-3.8-11.8-9-15.7-15.8c-3.9-6.7-5.8-14.3-5.8-22.7
			c0-8.4,1.9-16,5.8-22.7c3.9-6.7,9.1-11.9,15.7-15.7c6.6-3.8,13.9-5.7,22-5.7C223.7,220.8,231,222.7,237.7,226.5z M199.3,246.8
			c-4,4.4-6,10.4-6,18.1c0,7.5,2,13.5,6,18c4,4.5,9.4,6.7,16.2,6.7c6.7,0,12.1-2.2,16.2-6.7c4.1-4.5,6.1-10.5,6.1-18s-2-13.5-6-18
			c-4-4.5-9.4-6.7-16.2-6.7C208.8,240.2,203.4,242.4,199.3,246.8z"/>
		<path id="XMLID_95_" class="st2" d="M314.2,226.5c6.6,3.8,11.8,9,15.6,15.7c3.8,6.7,5.7,14.3,5.7,22.7c0,8.4-1.9,16-5.8,22.7
			c-3.9,6.7-9.1,12-15.7,15.8c-6.6,3.8-13.9,5.7-22,5.7s-15.3-1.9-22-5.7c-6.6-3.8-11.8-9-15.7-15.8c-3.9-6.7-5.8-14.3-5.8-22.7
			c0-8.4,1.9-16,5.8-22.7c3.9-6.7,9.1-11.9,15.7-15.7c6.6-3.8,13.9-5.7,22-5.7C300.2,220.8,307.5,222.7,314.2,226.5z M275.8,246.8
			c-4,4.4-6,10.4-6,18.1c0,7.5,2,13.5,6,18c4,4.5,9.4,6.7,16.2,6.7c6.7,0,12.1-2.2,16.2-6.7c4.1-4.5,6.1-10.5,6.1-18s-2-13.5-6-18
			c-4-4.5-9.4-6.7-16.2-6.7C285.3,240.2,279.9,242.4,275.8,246.8z"/>
	</g>
	<g id="XMLID_15_">
		<path id="XMLID_51_" class="st1" d="M133.4,328v4.3h-9.2v4.9h7.1v4.1h-7.1v9.1h-5.4V328H133.4z"/>
		<path id="XMLID_53_" class="st1" d="M157,329.1c1.7,1,3.1,2.3,4.1,4.1c1,1.7,1.5,3.7,1.5,5.9c0,2.2-0.5,4.2-1.5,5.9
			c-1,1.8-2.4,3.1-4.1,4.1c-1.7,1-3.6,1.5-5.7,1.5c-2.1,0-4-0.5-5.7-1.5c-1.7-1-3.1-2.3-4.1-4.1c-1-1.8-1.5-3.7-1.5-5.9
			c0-2.2,0.5-4.2,1.5-5.9c1-1.7,2.4-3.1,4.1-4.1c1.7-1,3.6-1.5,5.7-1.5C153.3,327.6,155.3,328.1,157,329.1z M147,334.4
			c-1,1.2-1.6,2.7-1.6,4.7c0,2,0.5,3.5,1.6,4.7s2.5,1.7,4.2,1.7c1.8,0,3.2-0.6,4.2-1.7s1.6-2.7,1.6-4.7c0-2-0.5-3.5-1.6-4.7
			c-1-1.2-2.5-1.7-4.2-1.7S148,333.2,147,334.4z"/>
		<path id="XMLID_56_" class="st1" d="M175.3,328v12.9c0,1.5,0.3,2.6,1,3.4s1.6,1.2,2.9,1.2s2.2-0.4,2.9-1.2s1-1.9,1-3.4V328h5.4
			v12.9c0,2.1-0.4,3.9-1.2,5.3c-0.8,1.4-1.9,2.5-3.4,3.3c-1.4,0.7-3,1.1-4.8,1.1c-1.8,0-3.4-0.4-4.8-1.1c-1.4-0.7-2.4-1.8-3.2-3.3
			c-0.8-1.5-1.2-3.2-1.2-5.4V328H175.3z"/>
		<path id="XMLID_67_" class="st1" d="M216.4,350.4H211l-9.1-13.7v13.7h-5.4V328h5.4l9.1,13.9V328h5.4V350.4z"/>
		<path id="XMLID_69_" class="st1" d="M243.3,345c-0.9,1.7-2.3,3-4.1,4s-3.8,1.4-6.2,1.4h-8.5V328h8.5c2.4,0,4.5,0.5,6.2,1.4
			c1.8,0.9,3.1,2.2,4,3.9c0.9,1.7,1.4,3.6,1.4,5.8C244.7,341.3,244.2,343.3,243.3,345z M237.5,343.8c1.2-1.1,1.8-2.7,1.8-4.7
			s-0.6-3.6-1.8-4.7c-1.2-1.1-2.8-1.7-4.9-1.7H230v12.8h2.6C234.7,345.5,236.3,345,237.5,343.8z"/>
		<path id="XMLID_72_" class="st1" d="M266.1,346.3h-8.4l-1.4,4.1h-5.7l8.2-22.2h6.2l8.2,22.2h-5.8L266.1,346.3z M264.7,342.2
			l-2.8-8.2l-2.8,8.2H264.7z"/>
		<path id="XMLID_84_" class="st1" d="M295.9,328v4.3h-6.1v18.1h-5.4v-18.1h-6V328H295.9z"/>
		<path id="XMLID_86_" class="st1" d="M308,328v22.4h-5.4V328H308z"/>
		<path id="XMLID_88_" class="st1" d="M332.5,329.1c1.7,1,3.1,2.3,4.1,4.1c1,1.7,1.5,3.7,1.5,5.9c0,2.2-0.5,4.2-1.5,5.9
			c-1,1.8-2.4,3.1-4.1,4.1s-3.6,1.5-5.7,1.5s-4-0.5-5.7-1.5s-3.1-2.3-4.1-4.1c-1-1.8-1.5-3.7-1.5-5.9c0-2.2,0.5-4.2,1.5-5.9
			c1-1.7,2.4-3.1,4.1-4.1c1.7-1,3.6-1.5,5.7-1.5C328.9,327.6,330.8,328.1,332.5,329.1z M322.6,334.4c-1,1.2-1.6,2.7-1.6,4.7
			c0,2,0.5,3.5,1.6,4.7s2.5,1.7,4.2,1.7c1.8,0,3.2-0.6,4.2-1.7s1.6-2.7,1.6-4.7c0-2-0.5-3.5-1.6-4.7s-2.5-1.7-4.2-1.7
			S323.6,333.2,322.6,334.4z"/>
		<path id="XMLID_91_" class="st1" d="M365.5,350.4H360l-9.1-13.7v13.7h-5.4V328h5.4l9.1,13.9V328h5.4V350.4z"/>
	</g>
</g>
</svg>
